<?xml version="1.0" encoding="UTF-8"?>
<svg xmlns="http://www.w3.org/2000/svg" xmlns:xlink="http://www.w3.org/1999/xlink" width="23px" height="20px" viewBox="0 0 23 20" version="1.1">
<g id="surface1">
<path style=" stroke:none;fill-rule:nonzero;fill:rgb(0%,0%,0%);fill-opacity:1;" d="M 9.515625 5.785156 L 6.554688 0 L 0 17.234375 L 3.671875 15.449219 L 6.742188 16.183594 L 8.953125 18.953125 L 11.332031 20 L 13.546875 18.953125 L 15.863281 16.183594 L 18.867188 15.449219 L 22.664062 17.234375 L 16.050781 0 L 13.066406 5.785156 Z M 9.515625 5.785156 "/>
<path style=" stroke:none;fill-rule:nonzero;fill:rgb(100%,44.705882%,0%);fill-opacity:1;" d="M 19.492188 10.695312 L 15.542969 15.625 L 13.183594 18.441406 L 11.308594 17.128906 L 9.433594 18.4375 L 7.074219 15.625 L 3.125 10.695312 L 6.625 1.507812 L 9.160156 6.410156 L 13.457031 6.410156 L 15.996094 1.507812 Z M 19.492188 10.695312 "/>
<path style=" stroke:none;fill-rule:nonzero;fill:rgb(100%,40.392157%,0%);fill-opacity:1;" d="M 8.242188 6.410156 L 5.628906 6.410156 L 6.738281 3.5 Z M 8.242188 6.410156 "/>
<path style=" stroke:none;fill-rule:nonzero;fill:rgb(100%,40.392157%,0%);fill-opacity:1;" d="M 16.988281 6.410156 L 14.375 6.410156 L 15.878906 3.5 Z M 16.988281 6.410156 "/>
<path style=" stroke:none;fill-rule:nonzero;fill:rgb(89.803922%,90.196078%,90.980392%);fill-opacity:1;" d="M 7.074219 15.625 L 3.71875 14.796875 L 1.105469 15.996094 L 3.125 10.695312 Z M 7.074219 15.625 "/>
<path style=" stroke:none;fill-rule:nonzero;fill:rgb(89.803922%,90.196078%,90.980392%);fill-opacity:1;" d="M 21.511719 15.996094 L 18.898438 14.796875 L 15.542969 15.625 L 19.492188 10.695312 Z M 21.511719 15.996094 "/>
<path style=" stroke:none;fill-rule:nonzero;fill:rgb(0%,0%,0%);fill-opacity:1;" d="M 13.183594 18.4375 L 11.316406 19.308594 L 9.433594 18.4375 L 11.308594 17.128906 Z M 13.183594 18.4375 "/>
<path style=" stroke:none;fill-rule:nonzero;fill:rgb(100%,40.392157%,0%);fill-opacity:1;" d="M 9.5 7.21875 L 11.308594 11.785156 L 13.121094 7.21875 Z M 9.5 7.21875 "/>
<path style=" stroke:none;fill-rule:nonzero;fill:rgb(0%,0%,0%);fill-opacity:1;" d="M 6.890625 10.605469 L 8.21875 10.605469 L 9.507812 12.050781 L 9.507812 13.105469 L 7.527344 11.695312 Z M 6.890625 10.605469 "/>
<path style=" stroke:none;fill-rule:nonzero;fill:rgb(0%,0%,0%);fill-opacity:1;" d="M 14.398438 10.605469 L 13.113281 12.050781 L 13.113281 13.105469 L 15.09375 11.695312 L 15.726562 10.605469 Z M 14.398438 10.605469 "/>
</g>
</svg>
