<?xml version="1.0" encoding="UTF-8"?>
<svg xmlns="http://www.w3.org/2000/svg" xmlns:xlink="http://www.w3.org/1999/xlink" width="20px" height="20px" viewBox="0 0 20 20" version="1.1">
<g id="surface1">
<path style=" stroke:none;fill-rule:nonzero;fill:rgb(10.196078%,9.803922%,9.411765%);fill-opacity:1;" d="M 9.984375 0 C 4.71875 0 0.410156 4.046875 0 9.191406 L 5.367188 11.40625 C 5.824219 11.09375 6.375 10.914062 6.964844 10.914062 C 7.019531 10.914062 7.070312 10.914062 7.121094 10.917969 L 9.511719 7.464844 L 9.511719 7.417969 C 9.511719 5.339844 11.207031 3.648438 13.289062 3.648438 C 15.371094 3.648438 17.066406 5.339844 17.066406 7.417969 C 17.066406 9.492188 15.371094 11.183594 13.289062 11.183594 C 13.257812 11.183594 13.230469 11.183594 13.203125 11.183594 L 9.796875 13.605469 C 9.800781 13.652344 9.800781 13.695312 9.800781 13.742188 C 9.800781 15.300781 8.527344 16.570312 6.964844 16.570312 C 5.59375 16.570312 4.445312 15.59375 4.183594 14.296875 L 0.34375 12.714844 C 1.535156 16.910156 5.398438 19.984375 9.984375 19.984375 C 15.515625 19.984375 20 15.507812 20 9.992188 C 20 4.472656 15.515625 0 9.984375 0 Z M 6.277344 15.160156 L 5.046875 14.652344 C 5.265625 15.105469 5.640625 15.484375 6.144531 15.695312 C 7.226562 16.144531 8.472656 15.632812 8.925781 14.550781 C 9.144531 14.027344 9.144531 13.449219 8.929688 12.925781 C 8.714844 12.402344 8.304688 11.992188 7.78125 11.773438 C 7.257812 11.558594 6.703125 11.566406 6.210938 11.75 L 7.484375 12.277344 C 8.28125 12.609375 8.660156 13.523438 8.324219 14.320312 C 7.992188 15.117188 7.074219 15.492188 6.277344 15.160156 Z M 15.804688 7.417969 C 15.804688 6.03125 14.675781 4.90625 13.289062 4.90625 C 11.898438 4.90625 10.769531 6.03125 10.769531 7.417969 C 10.769531 8.800781 11.898438 9.925781 13.289062 9.925781 C 14.675781 9.925781 15.804688 8.800781 15.804688 7.417969 Z M 11.402344 7.414062 C 11.402344 6.371094 12.25 5.527344 13.292969 5.527344 C 14.335938 5.527344 15.183594 6.371094 15.183594 7.414062 C 15.183594 8.453125 14.335938 9.296875 13.292969 9.296875 C 12.25 9.296875 11.402344 8.453125 11.402344 7.414062 Z M 11.402344 7.414062 "/>
</g>
</svg>
